{"asset":{"version":"2.0","generator":"babylon.js glTF exporter for 3dsmax 2017 v20210115.1"},"scene":0,"scenes":[{"nodes":[0,3]}],"nodes":[{"children":[1,2],"translation":[5.72204577E-08,-9.536743E-09,0.0],"name":"ToffyFan"},{"mesh":0,"translation":[-8.944439E-08,-1.36612915E-10,-0.0100865783],"name":"Model02","extras":{"mr displacement use global settings":true,"mr displacement view dependent":true,"mr displacement method":6,"mr displacement smoothing on":true,"mr displacement edge length":2.0,"mr displacement max displace":20.0,"mr displacement parametric subdivision level":5}},{"mesh":1,"translation":[8.467601E-08,-6.508247E-05,2.63598963E-07],"name":"Model01","extras":{"mr displacement use global settings":true,"mr displacement view dependent":true,"mr displacement method":6,"mr displacement smoothing on":true,"mr displacement edge length":2.0,"mr displacement max displace":20.0,"mr displacement parametric subdivision level":5}},{"name":"Default light"}],"meshes":[{"primitives":[{"attributes":{"POSITION":1,"NORMAL":2,"COLOR_0":3,"TEXCOORD_0":4},"indices":0,"material":0}],"name":"Model02"},{"primitives":[{"attributes":{"POSITION":6,"NORMAL":7,"COLOR_0":8,"TEXCOORD_0":9},"indices":5,"material":0}],"name":"Model01"}],"accessors":[{"bufferView":0,"componentType":5123,"count":4290,"type":"SCALAR","name":"accessorIndices"},{"bufferView":1,"componentType":5126,"count":4290,"max":[0.253581226,0.182578489,0.05512682],"min":[-0.253581226,-0.182578459,-0.05512682],"type":"VEC3","name":"accessorPositions"},{"bufferView":1,"byteOffset":51480,"componentType":5126,"count":4290,"type":"VEC3","name":"accessorNormals"},{"bufferView":2,"componentType":5126,"count":4290,"type":"VEC4","name":"accessorColors"},{"bufferView":3,"componentType":5126,"count":4290,"type":"VEC2","name":"accessorUVs"},{"bufferView":0,"byteOffset":8580,"componentType":5123,"count":9042,"type":"SCALAR","name":"accessorIndices"},{"bufferView":1,"byteOffset":102960,"componentType":5126,"count":9042,"max":[0.253581226,0.1524262,0.06521313],"min":[-0.253581226,-0.1524262,-0.06521314],"type":"VEC3","name":"accessorPositions"},{"bufferView":1,"byteOffset":211464,"componentType":5126,"count":9042,"type":"VEC3","name":"accessorNormals"},{"bufferView":2,"byteOffset":68640,"componentType":5126,"count":9042,"type":"VEC4","name":"accessorColors"},{"bufferView":3,"byteOffset":34320,"componentType":5126,"count":9042,"type":"VEC2","name":"accessorUVs"}],"bufferViews":[{"buffer":0,"byteLength":26664,"name":"bufferViewScalar"},{"buffer":0,"byteOffset":26664,"byteLength":319968,"byteStride":12,"name":"bufferViewFloatVec3"},{"buffer":0,"byteOffset":346632,"byteLength":213312,"byteStride":16,"name":"bufferViewFloatVec4"},{"buffer":0,"byteOffset":559944,"byteLength":106656,"byteStride":8,"name":"bufferViewFloatVec2"}],"buffers":[{"uri":"toffyfan.bin","byteLength":666600}],"materials":[{"pbrMetallicRoughness":{"baseColorTexture":{"index":0},"metallicFactor":0.0,"roughnessFactor":0.450053632},"name":"M_Model01"}],"textures":[{"sampler":0,"source":0,"name":"M01_texture01.png"}],"images":[{"uri":"./M01_texture01.png"}],"samplers":[{"magFilter":9729,"minFilter":9987}]}